<?xml version="1.0" encoding="UTF-8" standalone="no"?>
<!--Generator: Xara Designer (www.xara.com), SVG filter version: 6.1.0.18-->

<svg
   xmlns:dc="http://purl.org/dc/elements/1.1/"
   xmlns:cc="http://creativecommons.org/ns#"
   xmlns:rdf="http://www.w3.org/1999/02/22-rdf-syntax-ns#"
   xmlns:svg="http://www.w3.org/2000/svg"
   xmlns="http://www.w3.org/2000/svg"
   xmlns:sodipodi="http://sodipodi.sourceforge.net/DTD/sodipodi-0.dtd"
   xmlns:inkscape="http://www.inkscape.org/namespaces/inkscape"
   version="1.1"
   overflow="visible"
   width="10.499pt"
   height="10.5pt"
   viewBox="0 0 10.499 10.5"
   id="svg12"
   sodipodi:docname="blue_star.svg"
   style="overflow:visible;fill-rule:evenodd;stroke-width:0.50099999;stroke-linejoin:bevel"
   inkscape:version="0.92.3 (2405546, 2018-03-11)">
  <metadata
     id="metadata16">
    <rdf:RDF>
      <cc:Work
         rdf:about="">
        <dc:format>image/svg+xml</dc:format>
        <dc:type
           rdf:resource="http://purl.org/dc/dcmitype/StillImage" />
        <dc:title></dc:title>
      </cc:Work>
    </rdf:RDF>
  </metadata>
  <sodipodi:namedview
     pagecolor="#ffffff"
     bordercolor="#666666"
     borderopacity="1"
     objecttolerance="10"
     gridtolerance="10"
     guidetolerance="10"
     inkscape:pageopacity="0"
     inkscape:pageshadow="2"
     inkscape:window-width="716"
     inkscape:window-height="480"
     id="namedview14"
     showgrid="false"
     fit-margin-top="0"
     fit-margin-left="0"
     fit-margin-right="0"
     fit-margin-bottom="0"
     inkscape:zoom="3.776"
     inkscape:cx="-20.020119"
     inkscape:cy="28.910191"
     inkscape:window-x="419"
     inkscape:window-y="214"
     inkscape:window-maximized="0"
     inkscape:current-layer="MouseOff" />
  <defs
     id="defs2" />
  <g
     id="Document"
     font-size="16"
     transform="matrix(1,0,0,-1,-381,-258)"
     style="font-size:16px;font-family:'Times New Roman';fill:none;stroke:#000000">
    <g
       id="Spread"
       transform="translate(0,-750)">
      <g
         id="Page background">
        <path
           d="M 0,749.999 V 0 h 569.999 v 749.999 z"
           stroke-miterlimit="79.8403193612775"
           id="path4"
           inkscape:connector-curvature="0"
           style="stroke:none;stroke-width:0;stroke-linejoin:bevel;stroke-miterlimit:79.84031677;marker-start:none;marker-end:none" />
      </g>
      <g
         id="MouseOff">
        <path
           d="m 382.05,485.702 c 1.74,0 3.147,-1.412 3.147,-3.151 0,-0.581 0.473,-1.051 1.051,-1.051 0.58,0 1.051,0.47 1.051,1.051 0,1.739 1.409,3.151 3.15,3.151 0.579,0 1.05,0.469 1.05,1.049 0,0.58 -0.471,1.051 -1.05,1.051 -1.741,0 -3.15,1.408 -3.15,3.147 0,0.581 -0.471,1.051 -1.051,1.051 -0.578,0 -1.051,-0.47 -1.051,-1.051 0,-1.739 -1.407,-3.147 -3.147,-3.147 -0.58,0 -1.05,-0.471 -1.05,-1.051 0,-0.58 0.47,-1.049 1.05,-1.049 z m 4.198,2.131 c 0.308,-0.411 0.674,-0.776 1.084,-1.082 -0.41,-0.305 -0.776,-0.67 -1.084,-1.083 -0.306,0.413 -0.668,0.778 -1.082,1.083 0.414,0.306 0.776,0.671 1.082,1.082 z"
           stroke-miterlimit="79.8403193612775"
           id="path7"
           inkscape:connector-curvature="0"
           style="fill:#6983fe;fill-rule:evenodd;stroke:none;stroke-width:1.04999995;stroke-linejoin:miter;stroke-miterlimit:79.84031677;marker-start:none;marker-end:none;fill-opacity:1" />
      </g>
    </g>
  </g>
</svg>
