<?xml version="1.0" ?><!DOCTYPE svg  PUBLIC '-//W3C//DTD SVG 1.1//EN'  'http://www.w3.org/Graphics/SVG/1.1/DTD/svg11.dtd'><svg height="512px" style="enable-background:new 0 0 512 512;" version="1.1" viewBox="0 0 512 512" width="512px" xml:space="preserve" xmlns="http://www.w3.org/2000/svg" xmlns:xlink="http://www.w3.org/1999/xlink"><g id="_x31_6-cross_x2C__delete_x2C__cut"><g><g><path d="M80,470c-7.678,0-15.355-2.929-21.213-8.787c-11.715-11.716-11.715-30.71,0-42.426l365-365     c11.715-11.716,30.711-11.716,42.426,0c11.716,11.716,11.716,30.711,0,42.427l-365,365C95.355,467.071,87.678,470,80,470z"/></g><g><path d="M445,470c-7.678,0-15.355-2.929-21.213-8.787l-365-365c-11.715-11.716-11.715-30.711,0-42.427     c11.716-11.716,30.711-11.716,42.427,0l365,365c11.716,11.716,11.716,30.71,0,42.426C460.355,467.071,452.678,470,445,470z"/></g></g></g><g id="Layer_1"/></svg>