<?xml version="1.0" encoding="UTF-8" standalone="no"?>
<svg
   xmlns:dc="http://purl.org/dc/elements/1.1/"
   xmlns:cc="http://creativecommons.org/ns#"
   xmlns:rdf="http://www.w3.org/1999/02/22-rdf-syntax-ns#"
   xmlns:svg="http://www.w3.org/2000/svg"
   xmlns="http://www.w3.org/2000/svg"
   xmlns:sodipodi="http://sodipodi.sourceforge.net/DTD/sodipodi-0.dtd"
   xmlns:inkscape="http://www.inkscape.org/namespaces/inkscape"
   enable-background="new 0 0 512 512"
   height="512px"
   id="Layer_1"
   version="1.1"
   viewBox="0 0 512 512"
   width="512px"
   xml:space="preserve"
   sodipodi:docname="custom.svg"
   inkscape:version="0.92.3 (2405546, 2018-03-11)"><metadata
     id="metadata11"><rdf:RDF><cc:Work
         rdf:about=""><dc:format>image/svg+xml</dc:format><dc:type
           rdf:resource="http://purl.org/dc/dcmitype/StillImage" /></cc:Work></rdf:RDF></metadata><defs
     id="defs9" /><sodipodi:namedview
     pagecolor="#ffffff"
     bordercolor="#666666"
     borderopacity="1"
     objecttolerance="10"
     gridtolerance="10"
     guidetolerance="10"
     inkscape:pageopacity="0"
     inkscape:pageshadow="2"
     inkscape:window-width="716"
     inkscape:window-height="480"
     id="namedview7"
     showgrid="false"
     inkscape:zoom="0.4609375"
     inkscape:cx="256"
     inkscape:cy="256"
     inkscape:window-x="147"
     inkscape:window-y="116"
     inkscape:window-maximized="0"
     inkscape:current-layer="Layer_1" /><g
     id="g4"
     style="fill:#6983fe;fill-opacity:1"><path
       d="M456.961,132.984l-45.406-45.422c-9.391-9.375-24.625-9.391-34.016,0l-16.484,16.484   c-75.453-74.875-197.266-74.734-272.516,0.484c-75.219,75.25-75.375,197.094-0.5,272.531l-16.484,16.5   c-9.391,9.375-9.391,24.609-0.016,34l45.438,45.406c9.391,9.375,24.609,9.392,34,0l305.984-306   C466.352,157.594,466.352,142.375,456.961,132.984z M156.805,172.813c37.453-37.469,98.297-37.578,135.953-0.469L156.352,308.781   C119.227,271.094,119.352,210.266,156.805,172.813z M152.07,440.25l-7.094,7.094c-0.828,0.828-1.953,1.281-3.125,1.297   c-1.172,0-2.297-0.469-3.125-1.297l-30.156-30.156c-1.734-1.719-1.734-4.516,0-6.25l7.094-7.094   c0.813-0.844,1.938-1.297,3.125-1.297c1.156,0,2.281,0.453,3.125,1.297L152.07,434C153.789,435.719,153.789,438.531,152.07,440.25z    M187.008,405.344l-7.094,7.094c-0.828,0.845-1.953,1.313-3.125,1.313s-2.297-0.469-3.125-1.297l-18.016-18.017   c-1.719-1.719-1.734-4.516-0.016-6.25l7.094-7.094c0.828-0.844,1.953-1.313,3.125-1.313c1.188,0,2.313,0.469,3.125,1.297   l18.016,18.016C188.727,400.813,188.727,403.625,187.008,405.344z M221.914,370.453l-7.094,7.109c-1.734,1.719-4.531,1.719-6.25,0   l-18.031-18.031c-0.844-0.828-1.313-1.953-1.313-3.125s0.469-2.297,1.313-3.125l7.094-7.094c1.719-1.72,4.516-1.72,6.25,0   l18.031,18c0.828,0.844,1.297,1.969,1.297,3.125C223.211,368.5,222.758,369.625,221.914,370.453z M256.82,335.531l-7.109,7.109   c-1.734,1.733-4.516,1.733-6.25,0l-18.047-18.048c-1.719-1.719-1.719-4.516,0-6.25l7.094-7.094c1.734-1.719,4.531-1.719,6.25,0   l18.063,18.031c0.813,0.827,1.281,1.952,1.281,3.125C258.102,333.577,257.648,334.703,256.82,335.531z M291.727,300.625   l-7.094,7.125c-0.828,0.813-1.953,1.281-3.125,1.281s-2.313-0.469-3.125-1.281l-30.188-30.188c-1.719-1.734-1.719-4.531,0-6.25   l7.094-7.109c1.734-1.734,4.531-1.734,6.25,0l30.188,30.172C293.445,296.109,293.445,298.906,291.727,300.625z M326.648,265.75   l-7.078,7.094c-0.845,0.844-1.97,1.313-3.142,1.313s-2.297-0.47-3.141-1.313l-18.063-18.047c-0.813-0.828-1.281-1.953-1.281-3.141   c0-1.156,0.47-2.297,1.281-3.125l7.125-7.094c0.813-0.844,1.953-1.313,3.125-1.313c1.173,0,2.298,0.469,3.125,1.313l18.048,18.063   C328.383,261.219,328.383,264.016,326.648,265.75z M361.539,230.813l-7.094,7.094c-1.72,1.734-4.531,1.734-6.25,0l-18.031-18.016   c-0.844-0.828-1.297-1.953-1.313-3.125c0-1.172,0.47-2.297,1.313-3.125l7.094-7.094c0.813-0.828,1.938-1.297,3.125-1.297   c1.156,0,2.281,0.469,3.125,1.281l18.031,18.031c0.828,0.844,1.281,1.969,1.281,3.125C362.82,228.875,362.367,230,361.539,230.813z    M396.461,195.906L389.352,203c-1.719,1.734-4.53,1.734-6.25,0l-18.03-18.031c-0.845-0.828-1.297-1.953-1.297-3.125   c0-1.172,0.452-2.297,1.297-3.125l7.094-7.094c1.734-1.734,4.531-1.734,6.25,0l18.047,18.031   C398.195,191.375,398.195,194.188,396.461,195.906z M431.383,161l-7.078,7.109c-0.828,0.828-1.953,1.297-3.141,1.297   c-1.156,0-2.297-0.469-3.125-1.297l-30.188-30.203c-1.733-1.719-1.733-4.531,0-6.25l7.095-7.094   c0.813-0.828,1.938-1.281,3.125-1.281c1.155,0,2.28,0.453,3.125,1.281l30.188,30.188C433.102,156.469,433.102,159.281,431.383,161z   "
       fill="#4D4D4D"
       id="path2"
       style="fill:#6983fe;fill-opacity:1" /></g></svg>